<?xml version="1.0" encoding="utf-8"?>
<!-- Generator: Adobe Illustrator 25.4.1, SVG Export Plug-In . SVG Version: 6.00 Build 0)  -->
<svg version="1.1" xmlns="http://www.w3.org/2000/svg" xmlns:xlink="http://www.w3.org/1999/xlink" x="0px" y="0px"
	 viewBox="0 0 302.55 43.66" style="enable-background:new 0 0 302.55 43.66;" xml:space="preserve">
<style type="text/css">
	.st0{fill:#E3EAEC;}
	.st1{fill:#1ECAD3;}
	.st2{display:none;}
</style>
<g id="Artwork">
	<g>
		<path class="st0" d="M158.14,24.33c-0.13,0-0.23-0.12-0.21-0.24c0.65-3.5,5.51-6.42,11.52-6.42c6.11,0,10.78,2.93,11.67,6.42
			c0.03,0.13-0.08,0.25-0.21,0.25H158.14z M171.24,40.48c7.12,0,12.88-2.2,16.42-5.29c0.08-0.07,0.09-0.18,0.04-0.26l-2.08-3.5
			c-0.06-0.11-0.2-0.13-0.3-0.05c-2.82,2.42-7.44,4.2-13.27,4.2c-6.82,0-12.82-2.4-13.91-6.54c-0.03-0.13,0.07-0.26,0.2-0.26h29.04
			c0.1,0,0.18-0.06,0.2-0.16c0.12-0.6,0.16-1.44,0.16-1.94c0-7.96-7.46-13.51-18.07-13.51c-10.86,0-18.52,5.6-18.52,13.46
			C151.18,34.77,159.53,40.48,171.24,40.48z"/>
		<path class="st0" d="M272.05,36.03c-5.55,0-8.46-1.25-8.46-3.7c0-2.3,3.35-3.33,10.01-3.83l13.21-1.05v0.36
			C286.81,31.1,280.51,36.03,272.05,36.03z M270.5,40.48c7.46,0,13.71-2.65,16.31-6.61h0.05l0.05,0.85c0.25,3.5,3,5.75,7.16,5.75
			c2.98,0,5.68-1.05,7.06-2.73c0.06-0.07,0.06-0.17,0.01-0.25l-1.87-2.94c-0.07-0.12-0.23-0.12-0.32-0.02
			c-0.76,0.88-1.93,1.44-3.18,1.44c-1.65,0-2.65-1.05-2.65-2.6V22.61c0-6.16-7.26-9.46-16.36-9.46c-7.63,0-15.3,2.55-18.9,6.14
			c-0.07,0.07-0.08,0.17-0.03,0.25l2.19,3.72c0.07,0.11,0.21,0.13,0.31,0.04c3.32-3.16,9.95-5.33,16.38-5.33
			c5.85,0,10.11,1.95,10.11,4.3c0,0.9-0.6,1.03-1.8,1.13l-11.96,0.95c-10.41,0.9-15.76,4-15.76,8.81
			C257.29,37.93,262.09,40.48,270.5,40.48z"/>
		<g>
			<path class="st1" d="M58.04,40.53c-7.96,0-14.19-4.8-19.4-9.3l-0.48-0.41l-0.48,0.41c-5.22,4.5-11.45,9.3-19.4,9.3
				c-0.84,0-1.68-0.05-2.51-0.16C7.86,39.35,1.9,33.52,1.9,26.82c0-6.7,5.96-12.52,13.87-13.55c0.83-0.11,1.67-0.16,2.51-0.16
				c3.59,0,7.11,0.97,10.72,2.96l-4.3,4.19c-2.27-1.17-4.38-1.74-6.42-1.74c-5.35,0-9.7,3.72-9.7,8.3s4.35,8.3,9.7,8.3
				c5.33,0,10.4-4,14.72-7.74l6.92-6.05c5.09-4.26,10.82-8.21,18.12-8.21c0.84,0,1.68,0.05,2.51,0.16
				c7.91,1.02,13.87,6.85,13.87,13.55c0,6.7-5.96,12.52-13.87,13.55C59.73,40.47,58.88,40.53,58.04,40.53z M58.04,18.52
				c-5.33,0-10.4,4-14.72,7.74l-0.64,0.55l0.64,0.55c4.33,3.75,9.39,7.74,14.72,7.74c5.35,0,9.7-3.72,9.7-8.3
				S63.39,18.52,58.04,18.52z"/>
		</g>
		<path class="st0" d="M134.92,13.07c-6.77,0-11.9,2.59-14.21,7.05h-0.05l0.02-5.94c0-0.12-0.11-0.22-0.23-0.2l-6.6,0.81
			c-0.1,0.01-0.18,0.1-0.18,0.2v24.6c0,0.11,0.09,0.2,0.2,0.2l6.71,0c0.11,0,0.2-0.09,0.2-0.2V29.14
			c0.02-7.2,4.33-10.63,11.95-10.63c6.27,0,9.48,4.83,9.48,10.65V39.6c0,0.11,0.09,0.2,0.2,0.2h6.65c0.11,0,0.2-0.09,0.2-0.2V26.29
			C149.28,18.51,144.18,13.07,134.92,13.07z"/>
		<path class="st0" d="M97.49,13.07c-6.77,0-11.9,2.59-14.21,7.05h-0.05l0.02-5.94c0-0.12-0.11-0.22-0.23-0.2l-6.6,0.81
			c-0.1,0.01-0.18,0.1-0.18,0.2v24.6c0,0.11,0.09,0.2,0.2,0.2l6.71,0c0.11,0,0.2-0.09,0.2-0.2V29.14
			c0.02-7.2,4.33-10.63,11.95-10.63c6.27,0,9.48,4.83,9.48,10.65V39.6c0,0.11,0.09,0.2,0.2,0.2h6.65c0.11,0,0.2-0.09,0.2-0.2V26.29
			C111.85,18.51,106.75,13.07,97.49,13.07z"/>
		<path class="st0" d="M189.8,39.53h6.55c0.11,0,0.2-0.09,0.2-0.2v-8.86c0-0.07,0.04-0.13,0.09-0.17l4.8-3.11
			c0.08-0.05,0.19-0.04,0.25,0.03l12.51,12.26c0.04,0.04,0.09,0.06,0.14,0.06h7.57c0.18,0,0.27-0.22,0.14-0.35l-15.4-15.01
			c-0.09-0.09-0.08-0.25,0.03-0.32l14.76-9.48c0.17-0.11,0.1-0.37-0.11-0.38l-8.57-0.19c-0.04,0.01-0.08,0.02-0.11,0.03L196.7,24
			c-0.06,0.04-0.14,0-0.14-0.08V2.71c0-0.12-0.11-0.22-0.23-0.2l-6.55,0.86c-0.1,0.01-0.18,0.1-0.18,0.2v35.76
			C189.6,39.44,189.69,39.53,189.8,39.53z"/>
		<path class="st0" d="M243.47,40.5c5.45,0,9.8-2.01,11.92-5.03c0.05-0.07,0.05-0.16,0.01-0.23l-1.97-3.34
			c-0.07-0.13-0.24-0.12-0.34-0.01c-2.43,2.72-5.01,3.85-8.52,3.85c-4.06,0-5.95-2.16-5.9-6.12V19.19c0-0.11,0.09-0.2,0.2-0.2h15.62
			c0.11,0,0.2-0.09,0.2-0.2v-4.55c0-0.11-0.09-0.2-0.2-0.2h-15.62c-0.11,0-0.2-0.09-0.2-0.2V5.33c0-0.12-0.11-0.22-0.23-0.2
			l-6.54,0.86c-0.1,0.01-0.18,0.1-0.18,0.2l-0.02,7.63c0,0.11-0.09,0.2-0.2,0.2h-7.83c-0.11,0-0.2,0.09-0.2,0.2v4.55
			c0,0.11,0.09,0.2,0.2,0.2h7.88c0.11,0,0.2,0.09,0.2,0.2v11.43C231.74,36.89,236.19,40.5,243.47,40.5z"/>
	</g>
</g>
<g id="Guide" class="st2">
</g>
</svg>
